<mxfile host="app.diagrams.net" modified="2024-06-24T18:31:01.631Z" agent="Mozilla/5.0 (Windows NT 10.0; Win64; x64) AppleWebKit/537.36 (KHTML, like Gecko) Chrome/126.0.0.0 Safari/537.36" etag="2d1vG9XzYuud7SHslUGh" version="24.6.2" type="device">
  <diagram name="Страница — 1" id="M3AH6_I4i4pL1KFNWlLu">
    <mxGraphModel dx="2275" dy="1332" grid="1" gridSize="10" guides="1" tooltips="1" connect="1" arrows="1" fold="1" page="1" pageScale="1" pageWidth="827" pageHeight="1169" math="0" shadow="0">
      <root>
        <mxCell id="0" />
        <mxCell id="1" parent="0" />
        <mxCell id="oKGEBy7OaVLZdkFV1XsL-53" value="" style="rounded=1;whiteSpace=wrap;html=1;" vertex="1" parent="1">
          <mxGeometry x="1210" y="340" width="370" height="280" as="geometry" />
        </mxCell>
        <mxCell id="oKGEBy7OaVLZdkFV1XsL-48" value="&lt;span style=&quot;font-weight: 700;&quot;&gt;Захват трафика container&lt;/span&gt;" style="rounded=1;whiteSpace=wrap;html=1;" vertex="1" parent="1">
          <mxGeometry x="1250" y="160" width="120" height="60" as="geometry" />
        </mxCell>
        <mxCell id="oKGEBy7OaVLZdkFV1XsL-49" value="&lt;span style=&quot;font-weight: 700;&quot;&gt;Дообучение container&lt;/span&gt;" style="rounded=1;whiteSpace=wrap;html=1;" vertex="1" parent="1">
          <mxGeometry x="1420" y="370" width="120" height="60" as="geometry" />
        </mxCell>
        <mxCell id="oKGEBy7OaVLZdkFV1XsL-50" value="&lt;span style=&quot;font-weight: 700;&quot;&gt;Дэшборд container&lt;/span&gt;" style="rounded=1;whiteSpace=wrap;html=1;" vertex="1" parent="1">
          <mxGeometry x="1030" y="380" width="120" height="60" as="geometry" />
        </mxCell>
        <mxCell id="oKGEBy7OaVLZdkFV1XsL-51" value="&lt;span style=&quot;font-weight: 700;&quot;&gt;Анализ трафика container&lt;/span&gt;" style="rounded=1;whiteSpace=wrap;html=1;" vertex="1" parent="1">
          <mxGeometry x="1241" y="370" width="120" height="60" as="geometry" />
        </mxCell>
      </root>
    </mxGraphModel>
  </diagram>
</mxfile>
